<svg width="652" height="367" viewBox="0 0 652 367" fill="none" xmlns="http://www.w3.org/2000/svg">
<g filter="url(#filter0_d)">
<path d="M184.14 222.127C184.14 230.407 182.88 237.967 180.36 244.807C178.02 251.467 173.7 257.227 167.4 262.087C161.28 266.767 152.82 270.457 142.02 273.157C131.22 275.857 117.45 277.207 100.71 277.207C83.97 277.207 70.2 275.857 59.4 273.157C48.6 270.457 40.05 266.767 33.75 262.087C27.63 257.227 23.31 251.467 20.79 244.807C18.45 237.967 17.28 230.407 17.28 222.127L17.28 88.4772C17.28 85.0572 18 82.6272 19.44 81.1872C21.06 79.5672 23.58 78.7572 27 78.7572H69.39C72.81 78.7572 75.24 79.5672 76.68 81.1872C78.3 82.6272 79.11 85.0572 79.11 88.4772L79.11 211.597C79.11 215.197 80.46 218.257 83.16 220.777C85.86 223.117 91.89 224.287 101.25 224.287C110.79 224.287 116.91 223.117 119.61 220.777C122.31 218.257 123.66 215.197 123.66 211.597L123.66 88.4772C123.66 85.0572 124.38 82.6272 125.82 81.1872C127.44 79.5672 129.96 78.7572 133.38 78.7572H174.42C177.84 78.7572 180.27 79.5672 181.71 81.1872C183.33 82.6272 184.14 85.0572 184.14 88.4772V222.127ZM271.645 273.157H229.795C226.375 273.157 223.855 272.437 222.235 270.997C220.795 269.377 220.075 266.857 220.075 263.437V88.4772C220.075 85.0572 220.795 82.6272 222.235 81.1872C223.855 79.5672 226.375 78.7572 229.795 78.7572H271.645C275.065 78.7572 277.495 79.5672 278.935 81.1872C280.555 82.6272 281.365 85.0572 281.365 88.4772V150.577H292.165L319.975 87.6672C321.235 84.4272 322.945 82.1772 325.105 80.9172C327.265 79.4772 330.055 78.7572 333.475 78.7572H375.055C378.115 78.7572 380.185 79.5672 381.265 81.1872C382.345 82.6272 382.255 84.7872 380.995 87.6672L353.455 150.577C363.535 151.117 371.545 154.717 377.485 161.377C383.605 167.857 386.665 176.497 386.665 187.297V263.437C386.665 266.857 385.855 269.377 384.235 270.997C382.795 272.437 380.365 273.157 376.945 273.157H335.365C331.945 273.157 329.425 272.437 327.805 270.997C326.365 269.377 325.645 266.857 325.645 263.437V210.787C325.645 207.907 324.925 205.657 323.485 204.037C322.045 202.417 319.885 201.607 317.005 201.607H281.365V263.437C281.365 266.857 280.555 269.377 278.935 270.997C277.495 272.437 275.065 273.157 271.645 273.157ZM473.091 273.157H431.241C427.821 273.157 425.301 272.437 423.681 270.997C422.241 269.377 421.521 266.857 421.521 263.437V88.4772C421.521 85.0572 422.241 82.6272 423.681 81.1872C425.301 79.5672 427.821 78.7572 431.241 78.7572H513.861C538.341 78.7572 555.081 83.6172 564.081 93.3372C573.081 103.057 577.581 115.747 577.581 131.407V165.967C577.581 181.627 573.081 194.317 564.081 204.037C555.081 213.757 538.341 218.617 513.861 218.617H482.811V263.437C482.811 266.857 482.001 269.377 480.381 270.997C478.941 272.437 476.511 273.157 473.091 273.157ZM482.271 129.247V170.017H506.571C511.791 170.017 515.211 168.667 516.831 165.967C518.451 163.267 519.261 160.207 519.261 156.787V142.477C519.261 139.057 518.451 135.997 516.831 133.297C515.211 130.597 511.791 129.247 506.571 129.247H482.271Z" fill="#FF00FF"/>
</g>
<g filter="url(#filter1_d)">
<path d="M196.119 207.97C196.119 216.25 194.859 223.81 192.339 230.65C189.999 237.31 185.679 243.07 179.379 247.93C173.259 252.61 164.799 256.3 153.999 259C143.199 261.7 129.429 263.05 112.689 263.05C95.9492 263.05 82.1792 261.7 71.3792 259C60.5792 256.3 52.0292 252.61 45.7292 247.93C39.6092 243.07 35.2892 237.31 32.7692 230.65C30.4292 223.81 29.2592 216.25 29.2592 207.97L29.2592 74.32C29.2592 70.9 29.9792 68.47 31.4192 67.03C33.0392 65.41 35.5592 64.6 38.9792 64.6H81.3692C84.7892 64.6 87.2192 65.41 88.6592 67.03C90.2792 68.47 91.0892 70.9 91.0892 74.32L91.0892 197.44C91.0892 201.04 92.4392 204.1 95.1392 206.62C97.8392 208.96 103.869 210.13 113.229 210.13C122.769 210.13 128.889 208.96 131.589 206.62C134.289 204.1 135.639 201.04 135.639 197.44V74.32C135.639 70.9 136.359 68.47 137.799 67.03C139.419 65.41 141.939 64.6 145.359 64.6H186.399C189.819 64.6 192.249 65.41 193.689 67.03C195.309 68.47 196.119 70.9 196.119 74.32V207.97ZM283.625 259H241.775C238.355 259 235.835 258.28 234.215 256.84C232.775 255.22 232.055 252.7 232.055 249.28V74.32C232.055 70.9 232.775 68.47 234.215 67.03C235.835 65.41 238.355 64.6 241.775 64.6H283.625C287.045 64.6 289.475 65.41 290.915 67.03C292.535 68.47 293.345 70.9 293.345 74.32V136.42H304.145L331.955 73.51C333.215 70.27 334.925 68.02 337.085 66.76C339.245 65.32 342.035 64.6 345.455 64.6H387.035C390.095 64.6 392.165 65.41 393.245 67.03C394.325 68.47 394.235 70.63 392.975 73.51L365.435 136.42C375.515 136.96 383.525 140.56 389.465 147.22C395.585 153.7 398.645 162.34 398.645 173.14V249.28C398.645 252.7 397.835 255.22 396.215 256.84C394.775 258.28 392.345 259 388.925 259H347.345C343.925 259 341.405 258.28 339.785 256.84C338.345 255.22 337.625 252.7 337.625 249.28V196.63C337.625 193.75 336.905 191.5 335.465 189.88C334.025 188.26 331.865 187.45 328.985 187.45H293.345V249.28C293.345 252.7 292.535 255.22 290.915 256.84C289.475 258.28 287.045 259 283.625 259ZM485.07 259H443.22C439.8 259 437.28 258.28 435.66 256.84C434.22 255.22 433.5 252.7 433.5 249.28V74.32C433.5 70.9 434.22 68.47 435.66 67.03C437.28 65.41 439.8 64.6 443.22 64.6H525.84C550.32 64.6 567.06 69.46 576.06 79.18C585.06 88.9 589.56 101.59 589.56 117.25V151.81C589.56 167.47 585.06 180.16 576.06 189.88C567.06 199.6 550.32 204.46 525.84 204.46H494.79V249.28C494.79 252.7 493.98 255.22 492.36 256.84C490.92 258.28 488.49 259 485.07 259ZM494.25 115.09V155.86H518.55C523.77 155.86 527.19 154.51 528.81 151.81C530.43 149.11 531.24 146.05 531.24 142.63V128.32C531.24 124.9 530.43 121.84 528.81 119.14C527.19 116.44 523.77 115.09 518.55 115.09H494.25Z" fill="#00FFFF"/>
</g>
<g filter="url(#filter2_d)">
<path d="M190.254 214.56C190.254 222.84 188.994 230.4 186.474 237.24C184.134 243.9 179.814 249.66 173.514 254.52C167.394 259.2 158.934 262.89 148.134 265.59C137.334 268.29 123.564 269.64 106.824 269.64C90.084 269.64 76.314 268.29 65.514 265.59C54.714 262.89 46.164 259.2 39.864 254.52C33.744 249.66 29.424 243.9 26.904 237.24C24.564 230.4 23.394 222.84 23.394 214.56L23.394 80.9098C23.394 77.4898 24.114 75.0598 25.554 73.6198C27.174 71.9998 29.694 71.1898 33.114 71.1898H75.504C78.924 71.1898 81.354 71.9998 82.794 73.6198C84.414 75.0598 85.224 77.4898 85.224 80.9098L85.224 204.03C85.224 207.63 86.574 210.69 89.274 213.21C91.974 215.55 98.004 216.72 107.364 216.72C116.904 216.72 123.024 215.55 125.724 213.21C128.424 210.69 129.774 207.63 129.774 204.03V80.9098C129.774 77.4898 130.494 75.0598 131.934 73.6198C133.554 71.9998 136.074 71.1898 139.494 71.1898H180.534C183.954 71.1898 186.384 71.9998 187.824 73.6198C189.444 75.0598 190.254 77.4898 190.254 80.9098V214.56ZM277.759 265.59H235.909C232.489 265.59 229.969 264.87 228.349 263.43C226.909 261.81 226.189 259.29 226.189 255.87V80.9098C226.189 77.4898 226.909 75.0598 228.349 73.6198C229.969 71.9998 232.489 71.1898 235.909 71.1898H277.759C281.179 71.1898 283.609 71.9998 285.049 73.6198C286.669 75.0598 287.479 77.4898 287.479 80.9098V143.01H298.279L326.089 80.0998C327.349 76.8598 329.059 74.6098 331.219 73.3498C333.379 71.9098 336.169 71.1898 339.589 71.1898H381.169C384.229 71.1898 386.299 71.9998 387.379 73.6198C388.459 75.0598 388.369 77.2198 387.109 80.0998L359.569 143.01C369.649 143.55 377.659 147.15 383.599 153.81C389.719 160.29 392.779 168.93 392.779 179.73V255.87C392.779 259.29 391.969 261.81 390.349 263.43C388.909 264.87 386.479 265.59 383.059 265.59H341.479C338.059 265.59 335.539 264.87 333.919 263.43C332.479 261.81 331.759 259.29 331.759 255.87V203.22C331.759 200.34 331.039 198.09 329.599 196.47C328.159 194.85 325.999 194.04 323.119 194.04H287.479V255.87C287.479 259.29 286.669 261.81 285.049 263.43C283.609 264.87 281.179 265.59 277.759 265.59ZM479.205 265.59H437.355C433.935 265.59 431.415 264.87 429.795 263.43C428.355 261.81 427.635 259.29 427.635 255.87V80.9098C427.635 77.4898 428.355 75.0598 429.795 73.6198C431.415 71.9998 433.935 71.1898 437.355 71.1898H519.975C544.455 71.1898 561.195 76.0498 570.195 85.7698C579.195 95.4898 583.695 108.18 583.695 123.84V158.4C583.695 174.06 579.195 186.75 570.195 196.47C561.195 206.19 544.455 211.05 519.975 211.05H488.925V255.87C488.925 259.29 488.115 261.81 486.495 263.43C485.055 264.87 482.625 265.59 479.205 265.59ZM488.385 121.68V162.45H512.685C517.905 162.45 521.325 161.1 522.945 158.4C524.565 155.7 525.375 152.64 525.375 149.22V134.91C525.375 131.49 524.565 128.43 522.945 125.73C521.325 123.03 517.905 121.68 512.685 121.68H488.385Z" fill="white"/>
</g>
<defs>
<filter id="filter0_d" x="13.28" y="78.7572" width="568.301" height="206.45" filterUnits="userSpaceOnUse" color-interpolation-filters="sRGB">
<feFlood flood-opacity="0" result="BackgroundImageFix"/>
<feColorMatrix in="SourceAlpha" type="matrix" values="0 0 0 0 0 0 0 0 0 0 0 0 0 0 0 0 0 0 127 0" result="hardAlpha"/>
<feOffset dy="4"/>
<feGaussianBlur stdDeviation="2"/>
<feComposite in2="hardAlpha" operator="out"/>
<feColorMatrix type="matrix" values="0 0 0 0 0 0 0 0 0 0 0 0 0 0 0 0 0 0 0.5 0"/>
<feBlend mode="normal" in2="BackgroundImageFix" result="effect1_dropShadow"/>
<feBlend mode="normal" in="SourceGraphic" in2="effect1_dropShadow" result="shape"/>
</filter>
<filter id="filter1_d" x="25.2592" y="64.6" width="568.301" height="206.45" filterUnits="userSpaceOnUse" color-interpolation-filters="sRGB">
<feFlood flood-opacity="0" result="BackgroundImageFix"/>
<feColorMatrix in="SourceAlpha" type="matrix" values="0 0 0 0 0 0 0 0 0 0 0 0 0 0 0 0 0 0 127 0" result="hardAlpha"/>
<feOffset dy="4"/>
<feGaussianBlur stdDeviation="2"/>
<feComposite in2="hardAlpha" operator="out"/>
<feColorMatrix type="matrix" values="0 0 0 0 0 0 0 0 0 0 0 0 0 0 0 0 0 0 0.5 0"/>
<feBlend mode="normal" in2="BackgroundImageFix" result="effect1_dropShadow"/>
<feBlend mode="normal" in="SourceGraphic" in2="effect1_dropShadow" result="shape"/>
</filter>
<filter id="filter2_d" x="19.394" y="71.1898" width="568.301" height="206.45" filterUnits="userSpaceOnUse" color-interpolation-filters="sRGB">
<feFlood flood-opacity="0" result="BackgroundImageFix"/>
<feColorMatrix in="SourceAlpha" type="matrix" values="0 0 0 0 0 0 0 0 0 0 0 0 0 0 0 0 0 0 127 0" result="hardAlpha"/>
<feOffset dy="4"/>
<feGaussianBlur stdDeviation="2"/>
<feComposite in2="hardAlpha" operator="out"/>
<feColorMatrix type="matrix" values="0 0 0 0 0 0 0 0 0 0 0 0 0 0 0 0 0 0 0.5 0"/>
<feBlend mode="normal" in2="BackgroundImageFix" result="effect1_dropShadow"/>
<feBlend mode="normal" in="SourceGraphic" in2="effect1_dropShadow" result="shape"/>
</filter>
</defs>
</svg>
